<?xml version="1.0" encoding="utf-8"?>
<!-- Generator: Adobe Illustrator 13.0.0, SVG Export Plug-In . SVG Version: 6.00 Build 14948)  -->
<!DOCTYPE svg PUBLIC "-//W3C//DTD SVG 1.0//EN" "http://www.w3.org/TR/2001/REC-SVG-20010904/DTD/svg10.dtd">
<svg version="1.0" id="Layer_1" xmlns="http://www.w3.org/2000/svg" xmlns:xlink="http://www.w3.org/1999/xlink" x="0px" y="0px"
	 width="320.784px" height="275.417px" viewBox="0 0 320.784 275.417" enable-background="new 0 0 320.784 275.417"
	 xml:space="preserve">
<path fill="#E31B23" d="M221.055,211.009c-4.691-35.371-22.1-64.218-39.898-64.361c-17.801,0-43.802,28.881-58.955,64.416
	c-15.149,35.545,1.992,64.354,40.102,64.354C200.657,275.016,225.737,246.445,221.055,211.009"/>
<path d="M39.353,116.852L39.353,116.852C16.598,116.852,0,134.834,0,157.599c0,22.755,16.598,40.199,39.353,40.199
	c12.651,0,24.61-5.676,32.509-15.543c-0.857-0.807-3.039-5.463-10.373-5.463c-6.906,0-8.462,6.916-22.136,6.916
	c-13.392,0-24.499-11.364-24.499-26.109c0-14.755,11.107-26.639,24.499-26.639c12.207,0,15.142,7.256,21.419,7.256
	c6.282,0,9.946-5.022,10.799-5.811C63.677,122.529,52.004,116.852,39.353,116.852"/>
<path d="M119.614,119.21H87.625c-5.408,0-9.193,3.247-9.193,8.404v4.718h14.261c0,0,0.543,48.183-0.071,53.385l-0.014,0.018
	c-0.197,3.974-1.915,13.491-11.077,17.786c-7.521,3.525-7.603,6.897-7.981,12.127c0.106,0.376,0.264,0.609,0.479,0.619h0.041
	c0.031,0,0.059,0,0.089-0.019c0.269-0.072,7.468-1.839,8.517-2.278l-0.031-0.027c6.763-2.099,17.104-6.727,22.037-16.314
	c0,0,4.623-7.111,4.529-22.359v-42.937h0.674c5.412,0,9.73-3.247,9.73-8.404v-4.727"/>
<path fill="#F8971D" d="M284.598,93.864c-33.366-13.112-67.076-11.74-75.684,3.804c-8.396,15.771,4.06,52.218,27.797,82.695
	c23.732,30.479,57.232,29.464,75.727-3.875C330.719,143.253,317.87,106.954,284.598,93.864"/>
<path fill="#007DC3" d="M114.923,104.51c29.61,20.226,62.78,26.339,74.528,13.222c11.859-13.222,7.769-51.843-8.588-86.858
	c-16.354-34.998-49.258-41.465-74.686-13.095C81.063,46.122,85.39,84.344,114.923,104.51"/>
</svg>
